<?xml version="1.0" encoding="UTF-8" standalone="no"?>
<svg
   xmlns:dc="http://purl.org/dc/elements/1.1/"
   xmlns:cc="http://creativecommons.org/ns#"
   xmlns:rdf="http://www.w3.org/1999/02/22-rdf-syntax-ns#"
   xmlns:svg="http://www.w3.org/2000/svg"
   xmlns="http://www.w3.org/2000/svg"
   viewBox="0 0 3688.8132 4406.5601"
   height="4406.5601"
   width="3688.8132"
   xml:space="preserve"
   id="svg2"
   version="1.1"><metadata
     id="metadata8"><rdf:RDF><cc:Work
         rdf:about=""><dc:format>image/svg+xml</dc:format><dc:type
           rdf:resource="http://purl.org/dc/dcmitype/StillImage" /></cc:Work></rdf:RDF></metadata><defs
     id="defs6" /><g
     transform="matrix(1.3333333,0,0,-1.3333333,0,4406.56)"
     id="g10"><g
       transform="scale(0.1)"
       id="g12"><g
         transform="scale(2.02755)"
         id="g14"><path
           id="path16"
           style="fill:#100f0d;fill-opacity:1;fill-rule:evenodd;stroke:none"
           d="M 579.493,4376.72 6813.01,623.215 13046.7,4376.72 V 11923.4 L 6813.01,15676.8 579.493,11923.4 Z M 6813.01,0 c -53.02,0 -106.08,13.2183 -145.84,39.7513 L 141.77,3978.9 C 62.2308,4031.87 9.18213,4124.79 9.18213,4217.66 v 7864.74 c 0,106.2 53.04867,199 132.58787,252.1 l 6525.4,3925.8 c 92.82,53.1 198.91,53.1 291.79,0 l 6525.34,-3925.8 c 79.5,-53.1 132.6,-145.9 132.6,-252.1 V 4217.51 c 0,-106.09 -53.1,-198.96 -132.6,-238.76 L 6958.96,52.9697 C 6919.05,13.2183 6866.08,0 6813.01,0 v 0" /></g><g
         transform="scale(1.73885)"
         id="g18"><path
           id="path20"
           style="fill:#100f0d;fill-opacity:1;fill-rule:evenodd;stroke:none"
           d="m 335.466,13748.2 c -154.673,0 -293.866,108.3 -324.7594,247.5 -46.3714,185.6 61.8563,355.8 247.4234,402.1 l 7608.81,1855.8 c 185.47,46.4 355.7,-61.8 402.05,-247.5 46.41,-185.5 -61.88,-355.7 -247.47,-402.1 L 412.805,13748.2 c -15.483,15.5 -46.45,0 -77.339,0" /></g><g
         transform="scale(1.7405)"
         id="g22"><path
           id="path24"
           style="fill:#100f0d;fill-opacity:1;fill-rule:evenodd;stroke:none"
           d="m 15538.2,13735.2 c -30.9,0 -46.3,0 -77.3,15.5 l -7601.54,1854 c -185.35,46.3 -293.48,231.8 -247.17,401.7 46.31,170 231.71,293.6 401.72,247.3 l 7601.59,-1854.1 c 185.3,-46.3 293.5,-231.8 247.1,-401.7 -30.9,-154.5 -169.9,-262.7 -324.4,-262.7" /></g><g
         transform="scale(1.6973)"
         id="g26"><path
           id="path28"
           style="fill:#100f0d;fill-opacity:1;fill-rule:evenodd;stroke:none"
           d="m 15933.7,4705.59 c -47.5,0 -95,15.79 -158.5,31.52 L 13604.7,5814.47 H 2656.85 L 502.063,4737.11 C 327.816,4657.92 121.848,4721.38 42.6182,4895.6 -36.6137,5069.87 26.7543,5275.79 201.078,5355.03 L 2419.16,6464.15 c 47.5,15.79 95.01,31.52 158.38,31.52 l 11122.26,0.18 c 47.4,0 110.9,-15.91 158.4,-31.7 l 2249.7,-1109.12 c 174.2,-79.24 237.7,-285.16 158.5,-459.43 -79.3,-126.73 -206,-190.01 -332.7,-190.01" /></g><g
         transform="scale(1.74214)"
         id="g30"><path
           id="path32"
           style="fill:#100f0d;fill-opacity:1;fill-rule:evenodd;stroke:none"
           d="m 2511.19,5664.81 c -61.73,0 -108.02,15.55 -154.3,46.32 -154.38,92.59 -216.12,293.37 -138.93,447.61 l 5433.42,9925.16 c 92.53,154.4 293.21,216.1 447.61,138.9 154.35,-92.6 216.06,-293.3 138.86,-447.6 L 2804.51,5834.6 c -61.74,-107.97 -185.22,-169.79 -293.32,-169.79" /></g><g
         transform="scale(1.74214)"
         id="g34"><path
           id="path36"
           style="fill:#100f0d;fill-opacity:1;fill-rule:evenodd;stroke:none"
           d="m 13331.6,5664.81 c -123.5,0 -231.5,61.82 -293.3,169.79 l -5402.47,9925.2 c -92.59,154.3 -30.83,370.4 138.85,447.6 154.41,92.6 370.46,30.9 447.61,-138.9 L 13624.9,6143.36 c 92.6,-154.41 30.8,-370.41 -138.9,-447.61 -46.3,-30.94 -92.6,-30.94 -154.4,-30.94" /></g><g
         transform="scale(1.43859)"
         id="g38"><path
           id="path40"
           style="fill:#100f0d;fill-opacity:1;fill-rule:evenodd;stroke:none"
           d="m 3041.07,6860.11 c -168.16,0 -336.4,112.12 -392.54,280.48 L 31.5657,15739.2 c -56.0498,205.6 56.0525,430 261.7253,504.7 205.58,56.1 429.964,-56.1 504.641,-261.7 L 3414.98,7383.61 c 56.06,-205.62 -56.13,-430.01 -261.72,-504.66 -37.33,-18.84 -74.76,-18.84 -112.19,-18.84" /></g><g
         transform="scale(1.6973)"
         id="g42"><path
           id="path44"
           style="fill:#100f0d;fill-opacity:1;fill-rule:evenodd;stroke:none"
           d="m 13683.8,5814.47 c -31.6,0 -63.3,0 -95,15.96 -174.3,63.28 -285.2,253.47 -221.8,427.74 l 2249.7,7288.03 c 63.5,174.2 253.5,285.1 427.8,221.7 174.4,-63.4 285.2,-253.4 221.9,-427.7 l -2249.9,-7288 c -47.5,-142.7 -174.2,-237.73 -332.7,-237.73" /></g><path
         id="path46"
         style="fill:#100f0d;fill-opacity:1;fill-rule:evenodd;stroke:none"
         d="m 13813.7,0 c -161.3,0 -295.7,53.5977 -430.2,188.098 L 3944.63,10030.2 c -215.11,242.2 -215.11,591.8 26.93,833.7 242.03,215.1 591.62,215.1 833.66,-26.8 L 14244.1,994.902 C 14459.2,753 14459.2,403.199 14217,161.301 14109.6,53.5977 13975.1,0 13813.7,0" /><g
         transform="scale(1.46448)"
         id="g48"><path
           id="path50"
           style="fill:#100f0d;fill-opacity:1;fill-rule:evenodd;stroke:none"
           d="m 9432.46,0 c -91.84,0 -201.91,36.5983 -275.38,110.142 -165.25,146.876 -165.25,403.896 -18.37,569.211 L 15565.4,7399.94 c 147,165.18 404,165.18 569.2,18.3 165.4,-146.88 165.4,-403.89 18.5,-569.28 L 9726.36,128.439 C 9652.82,36.5983 9542.67,0 9432.46,0" /></g><g
         transform="scale(2.02755)"
         id="g52"><path
           id="path54"
           style="fill:#100f0d;fill-opacity:1;fill-rule:evenodd;stroke:none"
           d="m 6813.01,13395.5 c -159.15,0 -291.73,132.6 -291.73,291.8 v 2321 c 0,159.2 132.58,291.8 291.73,291.8 159.16,0 291.79,-132.6 291.79,-291.8 V 13674 c 0,-145.9 -132.63,-278.5 -291.79,-278.5" /></g><g
         transform="scale(1.62625)"
         id="g56"><path
           id="path58"
           style="fill:#7bd3dd;fill-opacity:1;fill-rule:evenodd;stroke:none"
           d="M 8497.26,16300 3293.62,6779.45 13679.5,6779.64 8497.26,16300" /></g><g
         transform="scale(1.64553)"
         id="g60"><path
           id="path62"
           style="fill:#417dc8;fill-opacity:1;fill-rule:evenodd;stroke:none"
           d="M 2744.98,7245.13 7701.95,16300 714.024,14595.6 v -677.1 L 2744.98,7245.13" /></g><g
         transform="scale(1.16142)"
         id="g64"><path
           id="path66"
           style="fill:#417dc8;fill-opacity:1;fill-rule:evenodd;stroke:none"
           d="M 3155.32,9256.54 1011.65,16300 V 8184.83 l 2143.67,1071.71" /></g><g
         transform="scale(1.3417)"
         id="g68"><path
           id="path70"
           style="fill:#417dc8;fill-opacity:1;fill-rule:evenodd;stroke:none"
           d="M 16300,7355.52 H 4273.36 l 6021.84,-6279.2 6004.8,6279.2" /></g><path
         id="path72"
         style="fill:#417dc8;fill-opacity:1;fill-rule:evenodd;stroke:none"
         d="M 10354.3,3346.7 4232.24,9730.5 1784.83,8506.8 Z" /><g
         transform="scale(1.58524)"
         id="g74"><path
           id="path76"
           style="fill:#417dc8;fill-opacity:1;fill-rule:evenodd;stroke:none"
           d="M 14741.9,6138.38 10883.4,2103.4 16300,5364.93 14741.9,6138.38" /></g><g
         transform="scale(1.62286)"
         id="g78"><path
           id="path80"
           style="fill:#417dc8;fill-opacity:1;fill-rule:evenodd;stroke:none"
           d="M 14752.9,6632.9 16300,5870.3 V 11644 L 14752.9,6632.9" /></g><g
         transform="scale(1.6473)"
         id="g82"><path
           id="path84"
           style="fill:#417dc8;fill-opacity:1;fill-rule:evenodd;stroke:none"
           d="m 14012.7,7225.72 2045.5,6625.98 v 744.6 L 9073.47,16300 14012.7,7225.72" /></g><g
         transform="scale(1.92817)"
         id="g86"><path
           id="path88"
           style="fill:#417dc8;fill-opacity:1;fill-rule:evenodd;stroke:none"
           d="M 7470.98,14613.8 12177.9,13465.8 7470.98,16300 V 14613.8" /></g><g
         transform="scale(1.92817)"
         id="g90"><path
           id="path92"
           style="fill:#417dc8;fill-opacity:1;fill-rule:evenodd;stroke:none"
           d="M 6857.39,14599.9 V 16300 l -4745.87,-2857.6 4745.87,1157.5" /></g></g></g></svg>